<svg xmlns="http://www.w3.org/2000/svg" width="1440" height="900"><path d="M581,428L759,258L643,172Z" fill="#92d4bd" stroke="#92d4bd" stroke-width="1.51"/><path d="M581,428L861,413L759,258Z" fill="#84cfc2" stroke="#84cfc2" stroke-width="1.51"/><path d="M643,172L378,199L581,428Z" fill="#9ed9b9" stroke="#9ed9b9" stroke-width="1.51"/><path d="M378,199L295,385L581,428Z" fill="#9fd9b9" stroke="#9fd9b9" stroke-width="1.51"/><path d="M643,172L540,-94L378,199Z" fill="#aedfbd" stroke="#aedfbd" stroke-width="1.51"/><path d="M759,258L783,-46L643,172Z" fill="#9dd8c1" stroke="#9dd8c1" stroke-width="1.51"/><path d="M1007,-1L783,-46L759,258Z" fill="#9cd4c7" stroke="#9cd4c7" stroke-width="1.51"/><path d="M783,-46L540,-94L643,172Z" fill="#acdec4" stroke="#acdec4" stroke-width="1.51"/><path d="M581,428L671,722L861,413Z" fill="#76c8c6" stroke="#76c8c6" stroke-width="1.51"/><path d="M287,685L671,722L581,428Z" fill="#7fc8c5" stroke="#7fc8c5" stroke-width="1.51"/><path d="M540,-94L357,-42L378,199Z" fill="#bae4bd" stroke="#bae4bd" stroke-width="1.51"/><path d="M378,199L98,273L295,385Z" fill="#aedfbb" stroke="#aedfbb" stroke-width="1.51"/><path d="M671,722L884,688L861,413Z" fill="#66bfcc" stroke="#66bfcc" stroke-width="1.51"/><path d="M1142,529L1085,192L861,413Z" fill="#71c2c9" stroke="#71c2c9" stroke-width="1.51"/><path d="M861,413L1085,192L759,258Z" fill="#84cbc3" stroke="#84cbc3" stroke-width="1.51"/><path d="M1085,192L1007,-1L759,258Z" fill="#8fcec6" stroke="#8fcec6" stroke-width="1.51"/><path d="M295,385L287,685L581,428Z" fill="#91d2c0" stroke="#91d2c0" stroke-width="1.51"/><path d="M167,-66L98,273L378,199Z" fill="#bee6be" stroke="#bee6be" stroke-width="1.51"/><path d="M295,385L203,641L287,685Z" fill="#94d0c6" stroke="#94d0c6" stroke-width="1.51"/><path d="M55,479L203,641L295,385Z" fill="#9fd7c5" stroke="#9fd7c5" stroke-width="1.51"/><path d="M884,688L1142,529L861,413Z" fill="#62bcce" stroke="#62bcce" stroke-width="1.51"/><path d="M671,722L774,919L884,688Z" fill="#5cb2c7" stroke="#5cb2c7" stroke-width="1.51"/><path d="M884,688L1151,671L1142,529Z" fill="#50b2d1" stroke="#50b2d1" stroke-width="1.51"/><path d="M287,685L617,890L671,722Z" fill="#74bac2" stroke="#74bac2" stroke-width="1.51"/><path d="M436,1002L617,890L287,685Z" fill="#75b4bb" stroke="#75b4bb" stroke-width="1.51"/><path d="M357,-42L167,-66L378,199Z" fill="#c2e7c0" stroke="#c2e7c0" stroke-width="1.51"/><path d="M540,-94L418,-245L357,-42Z" fill="#c1e7c6" stroke="#c1e7c6" stroke-width="1.51"/><path d="M565,-288L418,-245L540,-94Z" fill="#c0e6cb" stroke="#c0e6cb" stroke-width="1.51"/><path d="M565,-288L540,-94L783,-46Z" fill="#b5e2cb" stroke="#b5e2cb" stroke-width="1.51"/><path d="M418,-245L167,-66L357,-42Z" fill="#c8eac8" stroke="#c8eac8" stroke-width="1.51"/><path d="M899,-264L565,-288L783,-46Z" fill="#afdfd1" stroke="#afdfd1" stroke-width="1.51"/><path d="M-88,387L55,479L98,273Z" fill="#b1e0c6" stroke="#b1e0c6" stroke-width="1.51"/><path d="M98,273L55,479L295,385Z" fill="#acdec2" stroke="#acdec2" stroke-width="1.51"/><path d="M1007,-1L899,-264L783,-46Z" fill="#a3d6d0" stroke="#a3d6d0" stroke-width="1.51"/><path d="M617,890L774,919L671,722Z" fill="#5fafc1" stroke="#5fafc1" stroke-width="1.51"/><path d="M1004,970L1151,671L884,688Z" fill="#46a8cd" stroke="#46a8cd" stroke-width="1.51"/><path d="M1085,192L1310,-102L1007,-1Z" fill="#92c7c9" stroke="#92c7c9" stroke-width="1.51"/><path d="M1007,-1L1140,-328L899,-264Z" fill="#a1d3d8" stroke="#a1d3d8" stroke-width="1.51"/><path d="M1142,529L1288,403L1085,192Z" fill="#6cb8c4" stroke="#6cb8c4" stroke-width="1.51"/><path d="M1360,722L1288,403L1142,529Z" fill="#51a9c7" stroke="#51a9c7" stroke-width="1.51"/><path d="M70,914L287,685L203,641Z" fill="#8dc4c7" stroke="#8dc4c7" stroke-width="1.51"/><path d="M70,914L436,1002L287,685Z" fill="#81b7bf" stroke="#81b7bf" stroke-width="1.51"/><path d="M617,890L591,1243L774,919Z" fill="#5b9fba" stroke="#5b9fba" stroke-width="1.51"/><path d="M-53,890L70,914L203,641Z" fill="#8ec0c7" stroke="#8ec0c7" stroke-width="1.51"/><path d="M-167,158L-88,387L98,273Z" fill="#bde5c4" stroke="#bde5c4" stroke-width="1.51"/><path d="M1288,403L1360,254L1085,192Z" fill="#75b7be" stroke="#75b7be" stroke-width="1.51"/><path d="M1151,671L1360,722L1142,529Z" fill="#46a7cc" stroke="#46a7cc" stroke-width="1.51"/><path d="M774,919L1004,970L884,688Z" fill="#4da6c6" stroke="#4da6c6" stroke-width="1.51"/><path d="M888,1240L1004,970L774,919Z" fill="#4595be" stroke="#4595be" stroke-width="1.51"/><path d="M1360,254L1310,-102L1085,192Z" fill="#85bbc2" stroke="#85bbc2" stroke-width="1.51"/><path d="M1310,-102L1140,-328L1007,-1Z" fill="#99c9d1" stroke="#99c9d1" stroke-width="1.51"/><path d="M899,-264L1140,-328L565,-288Z" fill="#afdbda" stroke="#afdbda" stroke-width="1.51"/><path d="M167,-66L-167,158L98,273Z" fill="#c8e9c5" stroke="#c8e9c5" stroke-width="1.51"/><path d="M-99,-104L-167,158L167,-66Z" fill="#d3eecc" stroke="#d3eecc" stroke-width="1.51"/><path d="M-156,620L55,479L-88,387Z" fill="#a9dbcd" stroke="#a9dbcd" stroke-width="1.51"/><path d="M-156,620L203,641L55,479Z" fill="#9fd4cc" stroke="#9fd4cc" stroke-width="1.51"/><path d="M1261,928L1360,722L1151,671Z" fill="#3898c5" stroke="#3898c5" stroke-width="1.51"/><path d="M1288,403L1507,248L1360,254Z" fill="#6dadba" stroke="#6dadba" stroke-width="1.51"/><path d="M71,-353L167,-66L418,-245Z" fill="#d3eecf" stroke="#d3eecf" stroke-width="1.51"/><path d="M71,-353L-99,-104L167,-66Z" fill="#d9f0d3" stroke="#d9f0d3" stroke-width="1.51"/><path d="M-339,410L-156,620L-88,387Z" fill="#afded1" stroke="#afded1" stroke-width="1.51"/><path d="M565,-288L71,-353L418,-245Z" fill="#cfecd0" stroke="#cfecd0" stroke-width="1.51"/><path d="M1140,-328L71,-353L565,-288Z" fill="#c1e6d4" stroke="#c1e6d4" stroke-width="1.51"/><path d="M1360,254L1561,29L1310,-102Z" fill="#85b3bf" stroke="#85b3bf" stroke-width="1.51"/><path d="M1526,511L1507,248L1288,403Z" fill="#61a6bc" stroke="#61a6bc" stroke-width="1.51"/><path d="M1004,970L1261,928L1151,671Z" fill="#3898c5" stroke="#3898c5" stroke-width="1.51"/><path d="M190,1120L421,1179L436,1002Z" fill="#739fb1" stroke="#739fb1" stroke-width="1.51"/><path d="M436,1002L591,1243L617,890Z" fill="#65a0b6" stroke="#65a0b6" stroke-width="1.51"/><path d="M1004,970L1241,1119L1261,928Z" fill="#2e89bd" stroke="#2e89bd" stroke-width="1.51"/><path d="M70,914L190,1120L436,1002Z" fill="#7eaaba" stroke="#7eaaba" stroke-width="1.51"/><path d="M-156,620L-53,890L203,641Z" fill="#97cace" stroke="#97cace" stroke-width="1.51"/><path d="M1502,674L1526,511L1360,722Z" fill="#3e97c3" stroke="#3e97c3" stroke-width="1.51"/><path d="M1360,722L1526,511L1288,403Z" fill="#4da1c3" stroke="#4da1c3" stroke-width="1.51"/><path d="M-154,1106L190,1120L70,914Z" fill="#86aabe" stroke="#86aabe" stroke-width="1.51"/><path d="M1140,-328L1305,-341L71,-353Z" fill="#b3deda" stroke="#b3deda" stroke-width="1.51"/><path d="M1310,-102L1305,-341L1140,-328Z" fill="#9bc4d4" stroke="#9bc4d4" stroke-width="1.51"/><path d="M1565,-313L1305,-341L1310,-102Z" fill="#95bbce" stroke="#95bbce" stroke-width="1.51"/><path d="M-154,1106L591,1243L421,1179Z" fill="#7498ab" stroke="#7498ab" stroke-width="1.51"/><path d="M421,1179L591,1243L436,1002Z" fill="#6898ad" stroke="#6898ad" stroke-width="1.51"/><path d="M1508,974L1502,674L1360,722Z" fill="#2e8abe" stroke="#2e8abe" stroke-width="1.51"/><path d="M1731,164L1561,29L1507,248Z" fill="#78a4b6" stroke="#78a4b6" stroke-width="1.51"/><path d="M1507,248L1561,29L1360,254Z" fill="#78abb8" stroke="#78abb8" stroke-width="1.51"/><path d="M591,1243L888,1240L774,919Z" fill="#4f91b3" stroke="#4f91b3" stroke-width="1.51"/><path d="M-156,620L-429,931L-53,890Z" fill="#98c4d1" stroke="#98c4d1" stroke-width="1.51"/><path d="M-167,158L-339,410L-88,387Z" fill="#bee6cb" stroke="#bee6cb" stroke-width="1.51"/><path d="M-403,130L-339,410L-167,158Z" fill="#caebcd" stroke="#caebcd" stroke-width="1.51"/><path d="M-410,5L-403,130L-167,158Z" fill="#d7f0d3" stroke="#d7f0d3" stroke-width="1.51"/><path d="M71,-353L-152,-291L-99,-104Z" fill="#e0f3da" stroke="#e0f3da" stroke-width="1.51"/><path d="M888,1240L1034,1236L1004,970Z" fill="#3987b7" stroke="#3987b7" stroke-width="1.51"/><path d="M1261,928L1508,974L1360,722Z" fill="#2888bc" stroke="#2888bc" stroke-width="1.51"/><path d="M1034,1236L1241,1119L1004,970Z" fill="#2f85ba" stroke="#2f85ba" stroke-width="1.51"/><path d="M-339,410L-347,611L-156,620Z" fill="#addbd7" stroke="#addbd7" stroke-width="1.51"/><path d="M-410,5L-167,158L-99,-104Z" fill="#d9f0d2" stroke="#d9f0d2" stroke-width="1.51"/><path d="M-339,410L-403,130L-347,611Z" fill="#bee5d3" stroke="#bee5d3" stroke-width="1.51"/><path d="M-323,-250L-410,5L-99,-104Z" fill="#e1f4db" stroke="#e1f4db" stroke-width="1.51"/><path d="M1241,1119L1508,974L1261,928Z" fill="#227fb8" stroke="#227fb8" stroke-width="1.51"/><path d="M1871,478L1731,164L1526,511Z" fill="#5a94af" stroke="#5a94af" stroke-width="1.51"/><path d="M1526,511L1731,164L1507,248Z" fill="#689fb5" stroke="#689fb5" stroke-width="1.51"/><path d="M1513,1135L1508,974L1241,1119Z" fill="#1973b2" stroke="#1973b2" stroke-width="1.51"/><path d="M1748,717L1526,511L1502,674Z" fill="#3a90bf" stroke="#3a90bf" stroke-width="1.51"/><path d="M1561,29L1565,-313L1310,-102Z" fill="#8db2c6" stroke="#8db2c6" stroke-width="1.51"/><path d="M-152,-291L-323,-250L-99,-104Z" fill="#e2f4dd" stroke="#e2f4dd" stroke-width="1.51"/><path d="M71,-353L-323,-250L-152,-291Z" fill="#e5f5df" stroke="#e5f5df" stroke-width="1.51"/><path d="M1743,-57L1565,-313L1561,29Z" fill="#88a9c1" stroke="#88a9c1" stroke-width="1.51"/><path d="M190,1120L-154,1106L421,1179Z" fill="#7ea0b3" stroke="#7ea0b3" stroke-width="1.51"/><path d="M-53,890L-154,1106L70,914Z" fill="#8bb3c4" stroke="#8bb3c4" stroke-width="1.51"/><path d="M-429,931L-154,1106L-53,890Z" fill="#91b4ca" stroke="#91b4ca" stroke-width="1.51"/><path d="M1731,164L1743,-57L1561,29Z" fill="#7fa2b5" stroke="#7fa2b5" stroke-width="1.51"/><path d="M1738,930L1748,717L1502,674Z" fill="#297fb6" stroke="#297fb6" stroke-width="1.51"/><path d="M1731,164L1822,-196L1743,-57Z" fill="#809cb2" stroke="#809cb2" stroke-width="1.51"/><path d="M1508,974L1738,930L1502,674Z" fill="#217db7" stroke="#217db7" stroke-width="1.51"/><path d="M1034,1236L1513,1135L1241,1119Z" fill="#2374ae" stroke="#2374ae" stroke-width="1.51"/><path d="M-347,611L-429,931L-156,620Z" fill="#a2ced9" stroke="#a2ced9" stroke-width="1.51"/><path d="M-403,130L-429,931L-347,611Z" fill="#b1dcdb" stroke="#b1dcdb" stroke-width="1.51"/><path d="M-410,5L-429,931L-403,130Z" fill="#c2e7d4" stroke="#c2e7d4" stroke-width="1.51"/><path d="M1748,717L1871,478L1526,511Z" fill="#428bb6" stroke="#428bb6" stroke-width="1.51"/><path d="M1748,717L1738,930L1871,478Z" fill="#2f7cb0" stroke="#2f7cb0" stroke-width="1.51"/><path d="M1513,1135L1738,930L1508,974Z" fill="#136fb0" stroke="#136fb0" stroke-width="1.51"/><path d="M1743,-57L1822,-196L1565,-313Z" fill="#89a3be" stroke="#89a3be" stroke-width="1.51"/><path d="M1871,478L1822,-196L1731,164Z" fill="#7295a7" stroke="#7295a7" stroke-width="1.51"/><path d="M-154,1106L-398,1135L591,1243Z" fill="#829fb5" stroke="#829fb5" stroke-width="1.51"/><path d="M-429,931L-398,1135L-154,1106Z" fill="#92aecb" stroke="#92aecb" stroke-width="1.51"/><path d="M1513,1135L1814,1144L1738,930Z" fill="#0a63a7" stroke="#0a63a7" stroke-width="1.51"/><path d="M1738,930L1814,1144L1871,478Z" fill="#206ea8" stroke="#206ea8" stroke-width="1.51"/><path d="M1034,1236L1814,1144L1513,1135Z" fill="#1668a7" stroke="#1668a7" stroke-width="1.51"/></svg>